<?xml version="1.0" encoding="utf-8"?>
<!-- Generator: Adobe Illustrator 25.0.0, SVG Export Plug-In . SVG Version: 6.00 Build 0)  -->
<svg version="1.1" id="Layer_1" xmlns="http://www.w3.org/2000/svg" xmlns:xlink="http://www.w3.org/1999/xlink" x="0px" y="0px"
	 viewBox="0 0 73.8 43.6" enable-background="new 0 0 73.8 43.6" xml:space="preserve">
<g>
	<path fill="#FFFFFF" d="M72.5,0l0.1,0.2l0.1,0.1l0.4,0.1l0.6,1.8l-0.4,0.5l-0.2,0.9c-0.4,0.8-0.7,1.2-0.8,1.1l0.1,0.2l-0.1,0.1
		L72,5l-0.1-0.2l-0.1-0.1c-0.5,0.7-1.7,1.8-3.5,3.5c-0.9,0.3-2.4,1.2-4.4,2.8l-7.1,4.6c-5.1,3-9.2,5.7-12.2,7.9l0.1,0.1
		c2.1,0,3.8-0.2,5.1-0.5c1.7-0.1,3,0,4.1,0.3l1.6,0.1l0.1-0.1l0.1,0.2l0.3,0.1c0.1-0.3,0.3-0.4,0.5-0.3l0.1,0.1l0.1,0.2l0.1,0.1
		l0.4-0.1l0.1,0.2l0.1,0.1c0.2-0.5,1-0.6,2.4-0.3l0.7,0.3l0.4,1.2l-0.2,0.4c-0.7,1.1-3.1,2.8-7.3,5.3l-6.2,3.5
		c-4.8,2.9-8,4.7-9.5,5.4c-3.4,2.1-5.9,3.4-7.5,4l-0.4-0.2l0.1-0.6c0.3,0.1,0.5-0.1,0.8-0.6l0.7-0.1l-0.1-0.2l0.1-0.1l6.7-3.9
		l10.4-6.1c0.2,0.1,0.5-0.1,0.8-0.4l5-2.6c0.1-0.2,1.7-1.3,4.7-3.2l0.2-0.4l-0.1-0.1l-1.1-0.2l-0.1-0.2c-1.2,0.6-3.3,0.9-6.4,0.8
		c-1.5,0.1-2.9,0.5-4.2,1c-3.4,0.7-5.4,0.9-6.2,0.5c-0.9-0.4-1.2-1-0.8-1.7l0.1-0.3c0.5-1.1,3-2.9,7.4-5.6c1.1-0.9,2-1.5,2.8-1.8
		c2.5-1.7,4.2-2.7,4.9-3l-0.1-0.2c8.8-5.8,14-9.9,15.8-12.3c-1.6-0.1-3.9,0.4-6.8,1.4c-0.9,0-7,2.1-18.3,6.3l-4.2,1.7
		c-0.7,0.5-2.7,1.3-5.9,2.6c-0.1,0.3-0.7,0.5-1.8,0.6l0.1,0.2L34.1,15c-0.2-0.1-0.6,0.1-1.2,0.6c-5.3,2.6-8,4.1-8.2,4.5l-5.5,3.2
		c-0.8,0.3-2,1-3.5,2.3c-1.9,0.8-3.5,1.9-4.9,3.1l-2.1,1.5l0.1,0.1l2.9-0.8l2-0.4l0.4,0.2l0.3,0.8c-0.2-0.1-0.4,0.1-0.6,0.5
		c-0.8,0.3-1.6,0.4-2.3,0.4c-0.9,0.2-2.6,0.9-5.2,2.2c-3.3,1.4-5.2,2-5.7,1.8c0.1-0.2-0.1-0.6-0.6-1.1l0.3-0.5
		c0.4-0.9,1.5-1.8,3.1-2.6c0.3-0.6,2.1-1.7,5.4-3.4c2.6-1.9,4.1-2.8,4.5-2.7l-0.1-0.2l0.1-0.3l1.2-0.6l-0.1-0.2l0.5,0l-0.1-0.2
		L15,23c0.8-0.3,1.5-0.7,2.2-1.4c0.3,0.1,0.6,0.1,1.1-0.2l0.3,0.1l0.1-0.1l-0.3-0.1l0.1-0.2c0.4,0.2,0.7,0.1,0.9-0.2l0.1,0.2
		l0.1,0.1c0.3,0.1,0.9-0.2,1.8-1l0.3,0.1l0.1-0.3l-0.1-0.2l0.1-0.1c0.4,0.2,1.1-0.2,2.3-1.1c0.3,0.1,0.5,0,0.6-0.4
		c0.5,0.1,0.9,0,1.1-0.5c0.4-0.3,0.7-0.3,0.9-0.2l-0.1-0.2l0.1-0.1l2.6-1.4c0.6-0.1,1.5-0.6,2.8-1.5c0.4,0.1,1.2-0.3,2.1-1.1
		c0.2,0.1,0.8-0.2,1.8-0.8l0.1,0.1L36,12.7l0.1,0.1c0.3-0.7,1.2-1.2,2.6-1.4c0.2-0.4,0.5-0.4,1.1-0.2L39.7,11l0.1-0.3
		c1.9-0.6,3.1-1.2,3.6-1.8c1.2,0.1,2-0.1,2.3-0.7l2.1-0.7l0.3,0.3l0.1-0.1l0-0.5c0.2,0.1,0.7,0,1.5-0.4C50,7,50.2,6.9,50.3,6.6
		c0.9-0.5,2.2-1,3.9-1.4C54.3,5,54.7,5,55.4,5.1c0.2-0.5,0.7-0.7,1.3-0.7c0.4-0.5,0.8-0.7,1.1-0.6L57.9,4L58,4
		c0.4-0.6,0.7-0.9,1-0.7l0.3,0.3l0.1-0.1c0.2-0.5,0.9-0.8,1.9-0.9l0.1,0.2l0.3,0.1l0.1-0.1l-0.3-0.1l0.1-0.1c0.1-0.3,0.5-0.3,1.1,0
		c0.2-0.4,0.7-0.6,1.6-0.6c0.1-0.2,0.6-0.4,1.4-0.5C65.7,1.1,66,1,66.3,1.2c0.1-0.3,0.6-0.4,1.3-0.2C67.8,0.5,69.4,0.1,72.5,0
		 M19.3,21.1L19,21.5l-0.1,0.1l0.1,0.1l0.3-0.3l0.1-0.1L19.3,21.1z M68.5,0.6l-0.1,0.1l0.3,0.1l0.1-0.1L68.5,0.6z"/>
</g>
</svg>
